<?xml version="1.0" standalone="no"?>
<!DOCTYPE svg PUBLIC "-//W3C//DTD SVG 20010904//EN"
 "http://www.w3.org/TR/2001/REC-SVG-20010904/DTD/svg10.dtd">
<svg version="1.0" xmlns="http://www.w3.org/2000/svg"
 width="700.000000pt" height="700.000000pt" viewBox="0 0 700.000000 700.000000"
 preserveAspectRatio="xMidYMid meet">
<metadata>
Created by potrace 1.14, written by Peter Selinger 2001-2017
</metadata>
<g transform="translate(0.000000,700.000000) scale(0.100000,-0.100000)"
fill="#000000" stroke="none">
<path d="M2889 6616 c-2 -2 -49 -6 -104 -10 -55 -3 -111 -8 -125 -10 -14 -3
-41 -7 -60 -10 -20 -3 -88 -19 -153 -36 -514 -132 -935 -481 -1167 -967 -65
-136 -128 -331 -145 -448 -3 -23 -8 -52 -10 -65 -16 -77 -19 -473 -19 -2370 0
-1957 1 -2097 17 -2133 48 -106 149 -166 293 -176 50 -3 1038 -4 2196 -1
l2105 5 48 30 c112 70 134 134 129 377 -4 265 -16 397 -60 648 -103 599 -358
1224 -732 1795 -72 111 -212 306 -265 371 -9 10 -28 34 -43 52 -23 28 -27 44
-29 100 -5 139 -18 499 -19 535 -1 36 2 41 74 95 41 31 82 62 90 69 37 29 304
235 393 303 54 41 133 102 176 135 43 33 128 98 189 145 61 47 118 97 126 112
27 45 18 117 -18 154 -35 34 -65 40 -261 49 -71 3 -166 8 -210 10 -44 3 -132
7 -195 10 -123 5 -339 16 -405 20 -22 2 -51 3 -65 4 -21 1 -29 11 -49 64 -156
407 -496 769 -904 962 -221 104 -478 168 -700 174 -45 1 -84 4 -88 6 -3 3 -8
3 -10 1z"/>
</g>
</svg>
